<svg xmlns="http://www.w3.org/2000/svg" xmlns:xlink="http://www.w3.org/1999/xlink" width="100" zoomAndPan="magnify" viewBox="0 0 375 374.999991" height="100" preserveAspectRatio="xMidYMid meet" version="1.0"><defs><g/></defs><g fill="#ffffff" fill-opacity="1"><g transform="translate(80.051029, 233.38341)"><g><path d="M 89.199219 -1.703125 L 46.019531 -112.777344 C 45.59375 -113.910156 43.605469 -113.910156 43.179688 -112.777344 L 0.140625 -1.703125 C -0.285156 -0.851562 0.285156 0 1.5625 0 L 21.019531 0 C 21.589844 0 22.300781 -0.285156 22.441406 -0.851562 L 44.597656 -64.199219 L 67.039062 -0.851562 C 67.183594 -0.285156 67.894531 0 68.320312 0 L 87.917969 0 C 88.914062 0 89.625 -0.851562 89.199219 -1.703125 Z M 89.199219 -1.703125 "/></g></g></g><g fill="#ffffff" fill-opacity="1"><g transform="translate(164.452142, 283.366556)"><g><path d="M 59.230469 -92.464844 L 44.316406 -50.847656 L 22.15625 -112.777344 C 22.015625 -113.34375 21.449219 -113.628906 20.738281 -113.628906 L 1.421875 -113.628906 C 0.285156 -113.628906 -0.285156 -112.777344 0.140625 -111.921875 L 42.894531 -0.710938 C 43.460938 0.285156 45.167969 0.285156 45.59375 -0.710938 L 81.101562 -92.464844 Z M 59.230469 -92.464844 "/></g></g></g><g fill="#ffffff" fill-opacity="1"><g transform="translate(75.352426, 252.554309)"><g><path d="M 2.5625 0 L -0.046875 0 L 3.65625 -10.03125 L 6.234375 -10.03125 L 9.859375 0 L 7.265625 0 L 6.734375 -1.6875 L 3.09375 -1.6875 Z M 4.890625 -7.5625 C 4.804688 -7.269531 4.710938 -6.953125 4.609375 -6.609375 C 4.515625 -6.273438 4.347656 -5.726562 4.109375 -4.96875 L 3.703125 -3.640625 L 6.109375 -3.640625 L 5.703125 -4.96875 C 5.554688 -5.375 5.414062 -5.800781 5.28125 -6.25 C 5.144531 -6.707031 5.015625 -7.144531 4.890625 -7.5625 Z M 4.890625 -7.5625 "/></g></g></g><g fill="#ffffff" fill-opacity="1"><g transform="translate(93.91005, 252.554309)"><g><path d="M 7.171875 -2.3125 L 7.171875 0 L 0.765625 0 L 0.765625 -10.03125 L 3.25 -10.03125 L 3.25 -2.3125 Z M 7.171875 -2.3125 "/></g></g></g><g fill="#ffffff" fill-opacity="1"><g transform="translate(110.004265, 252.554309)"><g><path d="M 7.171875 -2.3125 L 7.171875 0 L 0.765625 0 L 0.765625 -10.03125 L 3.25 -10.03125 L 3.25 -2.3125 Z M 7.171875 -2.3125 "/></g></g></g><g fill="#ffffff" fill-opacity="1"><g transform="translate(126.098479, 252.554309)"><g/></g></g><g fill="#ffffff" fill-opacity="1"><g transform="translate(137.185892, 252.554309)"><g><path d="M 2.5625 0 L -0.046875 0 L 3.65625 -10.03125 L 6.234375 -10.03125 L 9.859375 0 L 7.265625 0 L 6.734375 -1.6875 L 3.09375 -1.6875 Z M 4.890625 -7.5625 C 4.804688 -7.269531 4.710938 -6.953125 4.609375 -6.609375 C 4.515625 -6.273438 4.347656 -5.726562 4.109375 -4.96875 L 3.703125 -3.640625 L 6.109375 -3.640625 L 5.703125 -4.96875 C 5.554688 -5.375 5.414062 -5.800781 5.28125 -6.25 C 5.144531 -6.707031 5.015625 -7.144531 4.890625 -7.5625 Z M 4.890625 -7.5625 "/></g></g></g><g fill="#ffffff" fill-opacity="1"><g transform="translate(155.743516, 252.554309)"><g><path d="M 8.59375 -2.9375 C 8.59375 -1.925781 8.296875 -1.179688 7.703125 -0.703125 C 7.109375 -0.234375 6.175781 0 4.90625 0 L 0.765625 0 L 0.765625 -10.03125 L 4.90625 -10.03125 C 6.0625 -10.03125 6.878906 -9.828125 7.359375 -9.421875 C 7.847656 -9.023438 8.09375 -8.359375 8.09375 -7.421875 C 8.09375 -6.828125 8.007812 -6.367188 7.84375 -6.046875 C 7.6875 -5.734375 7.367188 -5.492188 6.890625 -5.328125 C 7.472656 -5.210938 7.898438 -4.957031 8.171875 -4.5625 C 8.453125 -4.164062 8.59375 -3.625 8.59375 -2.9375 Z M 5.8125 -7.0625 C 5.8125 -7.40625 5.742188 -7.644531 5.609375 -7.78125 C 5.472656 -7.925781 5.238281 -8 4.90625 -8 L 3.25 -8 L 3.25 -5.96875 L 4.90625 -5.96875 C 5.238281 -5.96875 5.472656 -6.050781 5.609375 -6.21875 C 5.742188 -6.382812 5.8125 -6.664062 5.8125 -7.0625 Z M 6.1875 -3.109375 C 6.1875 -3.492188 6.085938 -3.757812 5.890625 -3.90625 C 5.703125 -4.0625 5.375 -4.140625 4.90625 -4.140625 L 3.25 -4.140625 L 3.25 -2.109375 L 4.90625 -2.109375 C 5.375 -2.109375 5.703125 -2.179688 5.890625 -2.328125 C 6.085938 -2.484375 6.1875 -2.742188 6.1875 -3.109375 Z M 6.1875 -3.109375 "/></g></g></g><g fill="#ffffff" fill-opacity="1"><g transform="translate(173.373355, 252.554309)"><g><path d="M 8.140625 -10.03125 L 8.140625 -7.796875 L 5.40625 -7.796875 L 5.40625 0 L 2.921875 0 L 2.921875 -7.796875 L 0.1875 -7.796875 L 0.1875 -10.03125 Z M 8.140625 -10.03125 "/></g></g></g><g fill="#ffffff" fill-opacity="1"><g transform="translate(196.219358, 183.677141)"><g><path d="M 3.4375 0 L -0.03125 -10.03125 L 2.734375 -10.03125 L 4.21875 -5.078125 C 4.320312 -4.742188 4.441406 -4.300781 4.578125 -3.75 C 4.710938 -3.195312 4.84375 -2.648438 4.96875 -2.109375 C 5.207031 -3.078125 5.375 -3.757812 5.46875 -4.15625 C 5.570312 -4.550781 5.65625 -4.851562 5.71875 -5.0625 L 7.1875 -10.03125 L 9.875 -10.03125 L 6.421875 0 Z M 3.4375 0 "/></g></g></g><g fill="#ffffff" fill-opacity="1"><g transform="translate(214.776982, 183.677141)"><g><path d="M 9.875 -5.03125 C 9.875 -3.195312 9.5 -1.875 8.75 -1.0625 C 8.007812 -0.25 6.8125 0.15625 5.15625 0.15625 C 3.414062 0.15625 2.191406 -0.222656 1.484375 -0.984375 C 0.785156 -1.753906 0.4375 -3.101562 0.4375 -5.03125 C 0.4375 -6.851562 0.804688 -8.164062 1.546875 -8.96875 C 2.285156 -9.78125 3.488281 -10.1875 5.15625 -10.1875 C 6.894531 -10.1875 8.113281 -9.800781 8.8125 -9.03125 C 9.519531 -8.269531 9.875 -6.9375 9.875 -5.03125 Z M 3.25 -2.875 C 3.382812 -2.613281 3.585938 -2.425781 3.859375 -2.3125 C 4.128906 -2.207031 4.5625 -2.15625 5.15625 -2.15625 C 5.738281 -2.15625 6.164062 -2.207031 6.4375 -2.3125 C 6.707031 -2.425781 6.914062 -2.613281 7.0625 -2.875 C 7.164062 -3.09375 7.238281 -3.367188 7.28125 -3.703125 C 7.332031 -4.046875 7.359375 -4.488281 7.359375 -5.03125 C 7.359375 -5.570312 7.332031 -6.015625 7.28125 -6.359375 C 7.238281 -6.703125 7.164062 -6.984375 7.0625 -7.203125 C 6.925781 -7.472656 6.722656 -7.664062 6.453125 -7.78125 C 6.179688 -7.894531 5.75 -7.953125 5.15625 -7.953125 C 4.550781 -7.953125 4.113281 -7.894531 3.84375 -7.78125 C 3.570312 -7.664062 3.375 -7.472656 3.25 -7.203125 C 3.144531 -6.984375 3.066406 -6.703125 3.015625 -6.359375 C 2.960938 -6.015625 2.9375 -5.570312 2.9375 -5.03125 C 2.9375 -4.488281 2.960938 -4.046875 3.015625 -3.703125 C 3.066406 -3.367188 3.144531 -3.09375 3.25 -2.875 Z M 3.25 -2.875 "/></g></g></g><g fill="#ffffff" fill-opacity="1"><g transform="translate(233.798492, 183.677141)"><g><path d="M 6.984375 -10.03125 L 9.546875 -10.03125 L 6.046875 -3.640625 L 6.046875 0 L 3.5625 0 L 3.5625 -3.640625 L -0.03125 -10.03125 L 2.796875 -10.03125 L 4.8125 -5.84375 Z M 6.984375 -10.03125 "/></g></g></g><g fill="#ffffff" fill-opacity="1"><g transform="translate(252.068182, 183.677141)"><g><path d="M 2.5625 0 L -0.046875 0 L 3.65625 -10.03125 L 6.234375 -10.03125 L 9.859375 0 L 7.265625 0 L 6.734375 -1.6875 L 3.09375 -1.6875 Z M 4.890625 -7.5625 C 4.804688 -7.269531 4.710938 -6.953125 4.609375 -6.609375 C 4.515625 -6.273438 4.347656 -5.726562 4.109375 -4.96875 L 3.703125 -3.640625 L 6.109375 -3.640625 L 5.703125 -4.96875 C 5.554688 -5.375 5.414062 -5.800781 5.28125 -6.25 C 5.144531 -6.707031 5.015625 -7.144531 4.890625 -7.5625 Z M 4.890625 -7.5625 "/></g></g></g><g fill="#ffffff" fill-opacity="1"><g transform="translate(270.625806, 183.677141)"><g><path d="M 6.453125 -3.734375 L 4.71875 -3.734375 L 4.71875 -5.734375 L 8.765625 -5.734375 L 8.765625 -0.453125 C 8.460938 -0.304688 7.925781 -0.164062 7.15625 -0.03125 C 6.394531 0.09375 5.703125 0.15625 5.078125 0.15625 C 3.335938 0.15625 2.128906 -0.238281 1.453125 -1.03125 C 0.773438 -1.832031 0.4375 -3.164062 0.4375 -5.03125 C 0.4375 -6.820312 0.828125 -8.128906 1.609375 -8.953125 C 2.398438 -9.773438 3.660156 -10.1875 5.390625 -10.1875 C 6.023438 -10.1875 6.585938 -10.171875 7.078125 -10.140625 C 7.578125 -10.117188 7.957031 -10.082031 8.21875 -10.03125 L 8.21875 -7.859375 C 7.875 -7.890625 7.457031 -7.910156 6.96875 -7.921875 C 6.476562 -7.941406 5.953125 -7.953125 5.390625 -7.953125 C 4.785156 -7.953125 4.332031 -7.894531 4.03125 -7.78125 C 3.738281 -7.675781 3.519531 -7.492188 3.375 -7.234375 C 3.238281 -7.015625 3.140625 -6.726562 3.078125 -6.375 C 3.015625 -6.019531 2.984375 -5.570312 2.984375 -5.03125 C 2.984375 -4.5 3.007812 -4.054688 3.0625 -3.703125 C 3.125 -3.359375 3.210938 -3.078125 3.328125 -2.859375 C 3.472656 -2.578125 3.679688 -2.375 3.953125 -2.25 C 4.234375 -2.132812 4.660156 -2.078125 5.234375 -2.078125 C 5.421875 -2.078125 5.617188 -2.082031 5.828125 -2.09375 C 6.035156 -2.113281 6.242188 -2.140625 6.453125 -2.171875 Z M 6.453125 -3.734375 "/></g></g></g><g fill="#ffffff" fill-opacity="1"><g transform="translate(288.591575, 183.677141)"><g><path d="M 7.6875 -2.3125 L 7.6875 0 L 0.765625 0 L 0.765625 -10.03125 L 7.53125 -10.03125 L 7.53125 -7.796875 L 3.25 -7.796875 L 3.25 -6.125 L 6.9375 -6.125 L 6.9375 -4.046875 L 3.25 -4.046875 L 3.25 -2.3125 Z M 7.6875 -2.3125 "/></g></g></g></svg>